<svg xmlns="http://www.w3.org/2000/svg" version="1.1" xmlns:xlink="http://www.w3.org/1999/xlink" width="1000" height="1000"><style>
    #light-icon {
      display: inline;
    }
    #dark-icon {
      display: none;
    }

    @media (prefers-color-scheme: dark) {
      #light-icon {
        display: none;
      }
      #dark-icon {
        display: inline;
      }
    }
  </style><g id="light-icon"><svg xmlns="http://www.w3.org/2000/svg" version="1.1" xmlns:xlink="http://www.w3.org/1999/xlink" width="1000" height="1000"><g clip-path="url(#SvgjsClipPath1033)"><rect width="1000" height="1000" fill="#ffffff"></rect><g transform="matrix(1.953125,0,0,1.953125,0,0)"><svg xmlns="http://www.w3.org/2000/svg" version="1.1" xmlns:xlink="http://www.w3.org/1999/xlink" width="512" height="512"><svg xmlns="http://www.w3.org/2000/svg" viewBox="0 0 512 512" id="flower">
  <path fill="#97d729" d="M246.74 243.26a111.84 111.84 0 0 1-32-8.89c-25.49-11.12-51-31.7-71.45-59.79a198.58 198.58 0 0 1-24.42-44.33C108.45 103.52 105.41 77 109.94 55c22.41 2.51 46.69 13.62 68.9 31.84a198.6 198.6 0 0 1 34.54 36.85c20.41 28.09 32.1 58.74 34.79 86.43a111.87 111.87 0 0 1-1.43 33.14zm-5.74 17.6a111.6 111.6 0 0 1-18.35 27.68c-18.46 20.81-45.93 38.75-79 49.48a198.45 198.45 0 0 1-49.61 9.51c-28.67 1.68-54.85-3.6-74.46-14.74C29 312.27 47 292.62 71.17 277.13a199 199 0 0 1 45.83-21.5c33-10.72 65.78-12.36 92.94-6.38A111.62 111.62 0 0 1 241 260.86zm58.31 127.26a198.53 198.53 0 0 1-6.31 50.27c-7.27 27.72-20.37 50.93-37 66.11-16.62-15.18-29.72-38.39-37-66.11a198.53 198.53 0 0 1-6.32-50.27c0-34.72 8.57-66.39 22.66-90.38a111.66 111.66 0 0 1 20.65-26 111.51 111.51 0 0 1 20.65 26c14.1 23.99 22.67 55.66 22.67 90.38zm193.03-55.33c-19.61 11.13-45.78 16.42-74.45 14.74a198.53 198.53 0 0 1-49.62-9.53c-33-10.73-60.49-28.67-78.95-49.48A111.6 111.6 0 0 1 271 260.86a111.62 111.62 0 0 1 31.12-11.61c27.16-6 59.93-4.34 93 6.38a199 199 0 0 1 45.79 21.5c24.09 15.49 42.09 35.14 51.43 55.66zm-99.22-202.55a198.58 198.58 0 0 1-24.42 44.33c-20.41 28.08-45.95 48.67-71.45 59.79a111.52 111.52 0 0 1-32 8.9 111.55 111.55 0 0 1-1.42-33.18c2.7-27.69 14.38-58.34 34.79-86.43a198.6 198.6 0 0 1 34.54-36.85c22.21-18.22 46.49-29.33 68.9-31.84 4.53 22.04 1.49 48.56-8.94 75.28z"></path>
  <path fill="#fb2b3a" d="M57.66 183.85A60.45 60.45 0 0 1 28 181.91a60.34 60.34 0 0 1 18.7 10 61 61 0 0 0 10.96-8.06zm117.22-17.5a60.48 60.48 0 0 0-83.31-1.24 60.4 60.4 0 0 1 53.31 16.24l37.4 36.59a53.1 53.1 0 0 1 13.36 54.37l26.36-3.89L235.82 226z"></path>
  <path fill="#8bc727" d="M395 255.63c-33-10.72-65.79-12.36-93-6.38l-9.71-5.08 4.87-9.81c25.5-11.12 51-31.71 71.45-59.79a198.58 198.58 0 0 0 24.42-44.33 81.26 81.26 0 0 0-36.26 2 11.26 11.26 0 0 1-14.45-10.43 81.06 81.06 0 0 0-9.25-35 198.6 198.6 0 0 0-34.54 36.85c-20.41 28.09-32.09 58.74-34.79 86.43l-7.74 7.66-7.83-7.67c-2.69-27.69-14.38-58.34-34.79-86.43a198.6 198.6 0 0 0-34.54-36.85 81.06 81.06 0 0 0-9.26 35.43 11 11 0 0 1-14.08 10.16 81.18 81.18 0 0 0-36.62-2.15 198.58 198.58 0 0 0 24.42 44.33c20.41 28.09 46 48.67 71.45 59.79l4.87 9.8-9.71 5.08c-27.16-6-59.92-4.34-92.94 6.38a199 199 0 0 0-45.79 21.5c1.75 1.8 3.59 3.53 5.52 5.17a80.7 80.7 0 0 0 25.39 14.61 11 11 0 0 1 5.35 16.53 81.25 81.25 0 0 0-13.31 34.09 198.45 198.45 0 0 0 49.6-9.52c33-10.73 60.49-28.67 79-49.48l10.79-1.52 1.83 10.78c-14.09 24-22.66 55.66-22.66 90.38a198.53 198.53 0 0 0 6.31 50.23 80.14 80.14 0 0 0 29.43-24.71 9.32 9.32 0 0 1 15-.12A80.16 80.16 0 0 0 293 438.39a198.53 198.53 0 0 0 6.32-50.27c0-34.72-8.57-66.39-22.66-90.38l1.82-10.74 10.84 1.59c18.46 20.81 45.93 38.75 78.95 49.48a198.53 198.53 0 0 0 49.62 9.51 81.49 81.49 0 0 0-9-27A20.53 20.53 0 0 1 419.1 292c8.43-3.57 12.46-6.41 16.22-9.61 1.93-1.64 3.77-3.37 5.52-5.17A199 199 0 0 0 395 255.63Zm-132.89-8.1 3.81 11.7-10 7.23-10-7.23 3.81-11.7Z"></path>
  <path fill="#fd4755" d="m221.21 265.92-75.54 39.53a60.49 60.49 0 0 0-25.75 81.28 60.52 60.52 0 0 1-4.85 63.27l-5.13 7 5.13-7.06a60.49 60.49 0 0 1 58.65-24.16 60.5 60.5 0 0 0 69.35-49.61l14.25-84.06Z"></path>
  <path fill="#fb2b3a" d="M143.72 425.82a60.41 60.41 0 0 0-18.15-.18 60.48 60.48 0 0 1-10.5 24.36 60.48 60.48 0 0 1 35.59-23.45 60.91 60.91 0 0 1-6.94-.73zm77.49-159.9L203.77 275a46.93 46.93 0 0 1 18.69 45.8l-9.39 55.37a60.51 60.51 0 0 1-46.28 48.9 58.13 58.13 0 0 1 6.93.71 60.5 60.5 0 0 0 69.35-49.61l14.25-84.06z"></path>
  <path fill="#fd4755" d="m254.68 292.15 14.25 84.06a60.5 60.5 0 0 0 69.35 49.61A60.49 60.49 0 0 1 396.93 450l5.13 7.06-5.13-7.06a60.52 60.52 0 0 1-4.85-63.25 60.49 60.49 0 0 0-25.75-81.28l-75.54-39.53Z"></path>
  <path fill="#fb2b3a" d="M315.21 425.11a60 60 0 0 0 16.13 1.42 60 60 0 0 0-16.13-1.42zm76.87-38.38a60.49 60.49 0 0 0-25.75-81.28l-75.54-39.53-12.56 9.08 58.1 30.41a60.49 60.49 0 0 1 25.75 81.28 60.49 60.49 0 0 0-5.65 38.91 60.43 60.43 0 0 1 40.5 24.4 60.52 60.52 0 0 1-4.85-63.27z"></path>
  <path fill="#fb2b3a" d="M323.28 425.82c-.75.12-1.5.21-2.26.31a60.68 60.68 0 0 0 17.26-.31c.73-.12 1.46-.22 2.19-.31a60.13 60.13 0 0 0-17.19.31Z"></path>
  <path fill="#fd4755" d="m290 268.42 84.36 12.43a60.51 60.51 0 0 0 68.61-50.63A60.47 60.47 0 0 1 484 181.91l8.31-2.7-8.31 2.7A60.51 60.51 0 0 1 422.39 167a60.5 60.5 0 0 0-85.27-.63L276.18 226Z"></path>
  <path fill="#fb2b3a" d="M436.37 177.48a60.37 60.37 0 0 0-8.43 22.74 60.51 60.51 0 0 1-68.61 50.63l-78.84-11.61 9.51 29.18 84.36 12.43a60.51 60.51 0 0 0 68.61-50.63A60.47 60.47 0 0 1 484 181.91a60.5 60.5 0 0 1-47.63-4.43Z"></path>
  <path fill="#fd4755" d="m235.82 226-60.94-59.63a60.5 60.5 0 0 0-85.27.63A60.51 60.51 0 0 1 28 181.91l-8.31-2.7 8.31 2.7a60.47 60.47 0 0 1 41.09 48.31 60.51 60.51 0 0 0 68.61 50.63l84.3-12.43Z"></path>
  <path fill="#fd4755" d="m278.31 227.53 37.89-76.38a60.51 60.51 0 0 0-26.95-80.9 60.51 60.51 0 0 1-33.25-54 60.51 60.51 0 0 1-33.25 54 60.51 60.51 0 0 0-26.95 80.9l37.89 76.38Z"></path>
  <path fill="#fb2b3a" d="M289.25 70.25a60.51 60.51 0 0 1-33.25-54 60.52 60.52 0 0 1-15 39.88 60.44 60.44 0 0 0 18.25 14.14 60.51 60.51 0 0 1 26.95 80.9l-37.89 76.38h30l37.89-76.38a60.51 60.51 0 0 0-26.95-80.92Z"></path>
  <circle cx="256" cy="256" r="43.27" fill="#fee903"></circle>
  <path fill="#f4d902" d="M284.16 223.17c.07.94.11 1.88.11 2.83a43.25 43.25 0 0 1-71.43 32.83 43.26 43.26 0 1 0 71.32-35.66Z"></path>
</svg></svg></g></g><defs><clipPath id="SvgjsClipPath1033"><rect width="1000" height="1000" x="0" y="0" rx="350" ry="350"></rect></clipPath></defs></svg></g><g id="dark-icon"><svg xmlns="http://www.w3.org/2000/svg" version="1.1" xmlns:xlink="http://www.w3.org/1999/xlink" width="1000" height="1000"><g clip-path="url(#SvgjsClipPath1034)"><rect width="1000" height="1000" fill="#ffffff"></rect><g transform="matrix(1.953125,0,0,1.953125,0,0)"><svg xmlns="http://www.w3.org/2000/svg" version="1.1" xmlns:xlink="http://www.w3.org/1999/xlink" width="512" height="512"><svg xmlns="http://www.w3.org/2000/svg" viewBox="0 0 512 512" id="flower">
  <path fill="#97d729" d="M246.74 243.26a111.84 111.84 0 0 1-32-8.89c-25.49-11.12-51-31.7-71.45-59.79a198.58 198.58 0 0 1-24.42-44.33C108.45 103.52 105.41 77 109.94 55c22.41 2.51 46.69 13.62 68.9 31.84a198.6 198.6 0 0 1 34.54 36.85c20.41 28.09 32.1 58.74 34.79 86.43a111.87 111.87 0 0 1-1.43 33.14zm-5.74 17.6a111.6 111.6 0 0 1-18.35 27.68c-18.46 20.81-45.93 38.75-79 49.48a198.45 198.45 0 0 1-49.61 9.51c-28.67 1.68-54.85-3.6-74.46-14.74C29 312.27 47 292.62 71.17 277.13a199 199 0 0 1 45.83-21.5c33-10.72 65.78-12.36 92.94-6.38A111.62 111.62 0 0 1 241 260.86zm58.31 127.26a198.53 198.53 0 0 1-6.31 50.27c-7.27 27.72-20.37 50.93-37 66.11-16.62-15.18-29.72-38.39-37-66.11a198.53 198.53 0 0 1-6.32-50.27c0-34.72 8.57-66.39 22.66-90.38a111.66 111.66 0 0 1 20.65-26 111.51 111.51 0 0 1 20.65 26c14.1 23.99 22.67 55.66 22.67 90.38zm193.03-55.33c-19.61 11.13-45.78 16.42-74.45 14.74a198.53 198.53 0 0 1-49.62-9.53c-33-10.73-60.49-28.67-78.95-49.48A111.6 111.6 0 0 1 271 260.86a111.62 111.62 0 0 1 31.12-11.61c27.16-6 59.93-4.34 93 6.38a199 199 0 0 1 45.79 21.5c24.09 15.49 42.09 35.14 51.43 55.66zm-99.22-202.55a198.58 198.58 0 0 1-24.42 44.33c-20.41 28.08-45.95 48.67-71.45 59.79a111.52 111.52 0 0 1-32 8.9 111.55 111.55 0 0 1-1.42-33.18c2.7-27.69 14.38-58.34 34.79-86.43a198.6 198.6 0 0 1 34.54-36.85c22.21-18.22 46.49-29.33 68.9-31.84 4.53 22.04 1.49 48.56-8.94 75.28z"></path>
  <path fill="#fb2b3a" d="M57.66 183.85A60.45 60.45 0 0 1 28 181.91a60.34 60.34 0 0 1 18.7 10 61 61 0 0 0 10.96-8.06zm117.22-17.5a60.48 60.48 0 0 0-83.31-1.24 60.4 60.4 0 0 1 53.31 16.24l37.4 36.59a53.1 53.1 0 0 1 13.36 54.37l26.36-3.89L235.82 226z"></path>
  <path fill="#8bc727" d="M395 255.63c-33-10.72-65.79-12.36-93-6.38l-9.71-5.08 4.87-9.81c25.5-11.12 51-31.71 71.45-59.79a198.58 198.58 0 0 0 24.42-44.33 81.26 81.26 0 0 0-36.26 2 11.26 11.26 0 0 1-14.45-10.43 81.06 81.06 0 0 0-9.25-35 198.6 198.6 0 0 0-34.54 36.85c-20.41 28.09-32.09 58.74-34.79 86.43l-7.74 7.66-7.83-7.67c-2.69-27.69-14.38-58.34-34.79-86.43a198.6 198.6 0 0 0-34.54-36.85 81.06 81.06 0 0 0-9.26 35.43 11 11 0 0 1-14.08 10.16 81.18 81.18 0 0 0-36.62-2.15 198.58 198.58 0 0 0 24.42 44.33c20.41 28.09 46 48.67 71.45 59.79l4.87 9.8-9.71 5.08c-27.16-6-59.92-4.34-92.94 6.38a199 199 0 0 0-45.79 21.5c1.75 1.8 3.59 3.53 5.52 5.17a80.7 80.7 0 0 0 25.39 14.61 11 11 0 0 1 5.35 16.53 81.25 81.25 0 0 0-13.31 34.09 198.45 198.45 0 0 0 49.6-9.52c33-10.73 60.49-28.67 79-49.48l10.79-1.52 1.83 10.78c-14.09 24-22.66 55.66-22.66 90.38a198.53 198.53 0 0 0 6.31 50.23 80.14 80.14 0 0 0 29.43-24.71 9.32 9.32 0 0 1 15-.12A80.16 80.16 0 0 0 293 438.39a198.53 198.53 0 0 0 6.32-50.27c0-34.72-8.57-66.39-22.66-90.38l1.82-10.74 10.84 1.59c18.46 20.81 45.93 38.75 78.95 49.48a198.53 198.53 0 0 0 49.62 9.51 81.49 81.49 0 0 0-9-27A20.53 20.53 0 0 1 419.1 292c8.43-3.57 12.46-6.41 16.22-9.61 1.93-1.64 3.77-3.37 5.52-5.17A199 199 0 0 0 395 255.63Zm-132.89-8.1 3.81 11.7-10 7.23-10-7.23 3.81-11.7Z"></path>
  <path fill="#fd4755" d="m221.21 265.92-75.54 39.53a60.49 60.49 0 0 0-25.75 81.28 60.52 60.52 0 0 1-4.85 63.27l-5.13 7 5.13-7.06a60.49 60.49 0 0 1 58.65-24.16 60.5 60.5 0 0 0 69.35-49.61l14.25-84.06Z"></path>
  <path fill="#fb2b3a" d="M143.72 425.82a60.41 60.41 0 0 0-18.15-.18 60.48 60.48 0 0 1-10.5 24.36 60.48 60.48 0 0 1 35.59-23.45 60.91 60.91 0 0 1-6.94-.73zm77.49-159.9L203.77 275a46.93 46.93 0 0 1 18.69 45.8l-9.39 55.37a60.51 60.51 0 0 1-46.28 48.9 58.13 58.13 0 0 1 6.93.71 60.5 60.5 0 0 0 69.35-49.61l14.25-84.06z"></path>
  <path fill="#fd4755" d="m254.68 292.15 14.25 84.06a60.5 60.5 0 0 0 69.35 49.61A60.49 60.49 0 0 1 396.93 450l5.13 7.06-5.13-7.06a60.52 60.52 0 0 1-4.85-63.25 60.49 60.49 0 0 0-25.75-81.28l-75.54-39.53Z"></path>
  <path fill="#fb2b3a" d="M315.21 425.11a60 60 0 0 0 16.13 1.42 60 60 0 0 0-16.13-1.42zm76.87-38.38a60.49 60.49 0 0 0-25.75-81.28l-75.54-39.53-12.56 9.08 58.1 30.41a60.49 60.49 0 0 1 25.75 81.28 60.49 60.49 0 0 0-5.65 38.91 60.43 60.43 0 0 1 40.5 24.4 60.52 60.52 0 0 1-4.85-63.27z"></path>
  <path fill="#fb2b3a" d="M323.28 425.82c-.75.12-1.5.21-2.26.31a60.68 60.68 0 0 0 17.26-.31c.73-.12 1.46-.22 2.19-.31a60.13 60.13 0 0 0-17.19.31Z"></path>
  <path fill="#fd4755" d="m290 268.42 84.36 12.43a60.51 60.51 0 0 0 68.61-50.63A60.47 60.47 0 0 1 484 181.91l8.31-2.7-8.31 2.7A60.51 60.51 0 0 1 422.39 167a60.5 60.5 0 0 0-85.27-.63L276.18 226Z"></path>
  <path fill="#fb2b3a" d="M436.37 177.48a60.37 60.37 0 0 0-8.43 22.74 60.51 60.51 0 0 1-68.61 50.63l-78.84-11.61 9.51 29.18 84.36 12.43a60.51 60.51 0 0 0 68.61-50.63A60.47 60.47 0 0 1 484 181.91a60.5 60.5 0 0 1-47.63-4.43Z"></path>
  <path fill="#fd4755" d="m235.82 226-60.94-59.63a60.5 60.5 0 0 0-85.27.63A60.51 60.51 0 0 1 28 181.91l-8.31-2.7 8.31 2.7a60.47 60.47 0 0 1 41.09 48.31 60.51 60.51 0 0 0 68.61 50.63l84.3-12.43Z"></path>
  <path fill="#fd4755" d="m278.31 227.53 37.89-76.38a60.51 60.51 0 0 0-26.95-80.9 60.51 60.51 0 0 1-33.25-54 60.51 60.51 0 0 1-33.25 54 60.51 60.51 0 0 0-26.95 80.9l37.89 76.38Z"></path>
  <path fill="#fb2b3a" d="M289.25 70.25a60.51 60.51 0 0 1-33.25-54 60.52 60.52 0 0 1-15 39.88 60.44 60.44 0 0 0 18.25 14.14 60.51 60.51 0 0 1 26.95 80.9l-37.89 76.38h30l37.89-76.38a60.51 60.51 0 0 0-26.95-80.92Z"></path>
  <circle cx="256" cy="256" r="43.27" fill="#fee903"></circle>
  <path fill="#f4d902" d="M284.16 223.17c.07.94.11 1.88.11 2.83a43.25 43.25 0 0 1-71.43 32.83 43.26 43.26 0 1 0 71.32-35.66Z"></path>
</svg></svg></g></g><defs><clipPath id="SvgjsClipPath1034"><rect width="1000" height="1000" x="0" y="0" rx="350" ry="350"></rect></clipPath></defs></svg></g></svg>