<svg xmlns="http://www.w3.org/2000/svg" width="180.184" height="70.365" fill="none"><path fill="#62BF5E" d="M36.45 0c-.39 0-.67.28-.78.56L27.38 27.3.55 34.64c-.39.12-.55.4-.55.79 0 .28.16.56.38.67l27.17 8.24 8.18 25.4c.11.28.39.56.78.56s.67-.16.78-.56l8.46-25.45 84.04-8.02c.28-.11.56-.39.56-.78 0-.4-.28-.68-.56-.79l-84.04-6.95L37.4.5c-.17-.34-.56-.5-.95-.5"/><path fill="#FFDA6B" d="m45.69 27.75-6.4 5.38c-1.56 1.29-1.33 2.36.28 2.36h90.78c0-.4-.28-.68-.55-.79zM36.45 0c-.39 0-.67.28-.78.56L27.38 27.3l6.34 5.66c1.67 1.46 2.73 1.07 2.73-1.45zM37.62 37.11c-.78-.11-1.17.67-1.17 2.36v30.89c.39 0 .67-.17.78-.56l8.46-25.46-6.4-6.16c-.67-.68-1.28-1.07-1.67-1.07M0 35.49c0 .39.16.67.55.78C5 37.62 27.49 44.51 27.49 44.4L34 37.84c1.34-1.34.89-2.47-1.05-2.47z"/><path fill="#62BF5E" fill-rule="evenodd" d="M72.54 20.82c-.99-.39-1.86-.93-2.6-1.64h-.01a8 8 0 0 1-1.71-2.49v-.01c-.4-.95-.6-1.99-.6-3.1s.2-2.15.6-3.11q.63-1.425 1.74-2.49c.74-.71 1.61-1.26 2.6-1.64 1-.39 2.07-.58 3.23-.58s2.23.19 3.22.58c.99.38 1.85.93 2.58 1.64.74.71 1.32 1.54 1.73 2.49.42.94.63 1.98.63 3.11 0 1.11-.21 2.16-.62 3.13q-.63 1.425-1.74 2.49-1.095 1.035-2.58 1.62c-.98.39-2.05.58-3.21.58s-2.25-.19-3.26-.58m80.41 0c-1-.39-1.87-.93-2.61-1.64q-1.095-1.065-1.71-2.49v-.01c-.41-.95-.6-1.99-.6-3.1s.19-2.15.6-3.11a7.66 7.66 0 0 1 4.34-4.13c.99-.39 2.07-.58 3.22-.58 1.16 0 2.24.19 3.22.58.99.38 1.86.93 2.59 1.64.74.71 1.32 1.54 1.73 2.49.41.94.62 1.98.62 3.11 0 1.11-.21 2.16-.62 3.13-.41.95-.99 1.78-1.73 2.49-.73.69-1.6 1.23-2.59 1.62-.98.39-2.05.58-3.2.58-1.16 0-2.25-.19-3.26-.58m-98.81.34V6h6.56c1.3 0 2.46.22 3.45.67.98.44 1.76 1.09 2.31 1.95s.82 1.87.82 3.02c0 1.13-.27 2.14-.82 3-.55.85-1.33 1.51-2.31 1.96h-.01c-.98.44-2.14.65-3.44.65h-2.32v3.91zM86.6 10.91 86.78 6h11.75v11.49h1.96v6.6h-4.01v-2.93h-8.87v2.93H83.6l.03-6.6h1.03c.3-.01.52-.12.71-.33v-.01c.26-.28.48-.69.65-1.28.18-.61.31-1.33.39-2.17v-.01a43 43 0 0 0 .19-2.78M111.26 6h4.24v15.16h-4.24v-5.81h-5.35v5.81h-4.25V6h4.25v5.58h5.35zM118 21.16V6h4.23v8.17L128.14 6h3.8v15.16h-4.2V13l-5.92 8.16zm24.33-8.62V6h4.2v15.16h-4.2v-4.9c-.31.1-.62.18-.92.25l-.01.01q-1.005.21-1.95.21c-1.95 0-3.53-.47-4.65-1.49h-.01c-1.13-1.04-1.66-2.5-1.66-4.31V6h4.21v4.56c0 .89.23 1.47.62 1.85.4.37 1 .59 1.87.59.58 0 1.13-.06 1.66-.19.29-.07.57-.17.84-.27m32.79 8.62-3.65-5.71h-1.45v5.71h-4.22V6h4.22v5.72h1.55L175.24 6h4.63l-4.91 7.34 5.04 7.82zm-97.81-3.83c.47-.19.88-.47 1.23-.82.35-.36.62-.78.81-1.27l.01-.01q.3-.72.3-1.65t-.3-1.65l-.01-.01c-.19-.5-.46-.92-.81-1.27v-.01c-.34-.35-.74-.62-1.21-.81-.46-.19-.98-.28-1.54-.28-.57 0-1.08.09-1.55.28-.46.19-.86.46-1.21.82-.36.35-.63.78-.84 1.27-.18.49-.28 1.04-.28 1.66 0 .6.1 1.16.29 1.66.2.49.47.92.81 1.27.35.35.76.63 1.23.82.46.19.98.28 1.55.28.56 0 1.07-.09 1.52-.28m80.4 0h.01c.47-.19.88-.47 1.23-.82.35-.36.62-.78.81-1.27v-.01q.3-.72.3-1.65t-.3-1.65v-.01c-.19-.5-.46-.92-.81-1.27l-.01-.01q-.495-.525-1.2-.81c-.47-.19-.98-.28-1.55-.28s-1.08.09-1.55.28c-.45.19-.86.46-1.21.82-.35.35-.63.78-.83 1.27-.19.49-.29 1.04-.29 1.66 0 .6.1 1.16.29 1.66.2.49.47.92.81 1.27.35.36.76.63 1.23.82s.98.28 1.55.28 1.07-.09 1.52-.28m-99.33-3.74h2.14c.94 0 1.54-.21 1.9-.53.37-.32.57-.77.57-1.42 0-.67-.2-1.13-.57-1.45-.36-.32-.96-.52-1.9-.52h-2.14zm31.07 3.9h4.87V9.67h-3.81l-.04 1.58q-.06 1.335-.18 2.52c-.07.8-.18 1.53-.33 2.2v.01c-.13.56-.3 1.07-.51 1.51"/><path stroke="#62BF5E" stroke-width=".2" d="M54.64 6.5h6.06c1.25 0 2.33.21 3.24.62.9.41 1.6 1 2.1 1.76.49.77.74 1.69.74 2.76 0 1.05-.25 1.96-.74 2.73-.5.77-1.2 1.36-2.1 1.78-.91.4-1.99.61-3.24.61h-4.26l1.44-1.48v5.38h-3.24zm1.8 7.58h4.08c1 0 1.74-.21 2.24-.64.49-.43.74-1.03.74-1.8 0-.79-.25-1.39-.74-1.82-.5-.44-1.24-.65-2.24-.65h-4.08l1.44-1.56v8.03zm16.29 6.28c-.94-.37-1.75-.88-2.44-1.54a7.1 7.1 0 0 1-1.6-2.33c-.38-.89-.56-1.86-.56-2.91s.18-2.02.56-2.91.92-1.67 1.62-2.33a7.2 7.2 0 0 1 2.44-1.54 8.3 8.3 0 0 1 3.04-.55c1.1 0 2.11.19 3.03.55.94.36 1.74.88 2.42 1.54.7.66 1.24 1.44 1.62 2.33.39.87.58 1.84.58 2.91 0 1.05-.19 2.03-.58 2.93-.38.89-.92 1.67-1.62 2.33-.68.65-1.48 1.15-2.42 1.52-.92.36-1.92.54-3.02.54s-2.13-.18-3.07-.54Zm4.77-2.57c.54-.22 1-.53 1.4-.93.4-.41.71-.89.92-1.44.23-.55.34-1.17.34-1.84 0-.68-.11-1.29-.34-1.84-.21-.56-.52-1.03-.92-1.44q-.57-.6-1.38-.93c-.53-.22-1.11-.32-1.73-.32-.63 0-1.21.1-1.74.32q-.78.33-1.38.93c-.4.41-.72.88-.94 1.44-.22.55-.32 1.16-.32 1.84 0 .66.1 1.27.32 1.84.22.55.53 1.03.92 1.44.4.4.86.71 1.4.93.53.21 1.11.32 1.74.32.62 0 1.19-.11 1.71-.32Zm17.32-8.62h-4.79l-.06 2.06q-.06 1.32-.18 2.49c-.07.78-.18 1.5-.32 2.15-.15.63-.34 1.17-.58 1.61-.23.45-.52.77-.86.96l-3.46-.45c.48.01.87-.16 1.18-.51.32-.35.57-.84.76-1.47.18-.65.32-1.41.4-2.27.09-.86.16-1.8.2-2.81l.16-4.43h10.75v12.7h-3.2zm-10.69 8.82h15.85v5.6h-3v-2.93h-9.87v2.93h-3zM115 6.5v14.16h-3.24V6.5zm-12.84 14.16V6.5h3.24v14.16zm3-5.81v-2.77H112v2.77zm13.35-8.35h3.21v9.22l6.68-9.22h3.04v14.16h-3.2v-9.21l-6.68 9.21h-3.05zm23.1 6.8a6.8 6.8 0 0 0 1.6-.63l.08 2.71c-.69.28-1.36.5-2 .65-.64.13-1.25.2-1.84.2-1.88 0-3.31-.45-4.31-1.36s-1.5-2.23-1.5-3.94V6.5h3.19v4.06c0 .98.26 1.71.78 2.21.52.49 1.26.73 2.22.73.62 0 1.21-.07 1.78-.2.25-.07.49-.14.72-.23.13-.05.26-.1.39-.16.03-.01.07-.03.11-.05V6.5m0 0h3.2v14.16h-3.2zm10.3 13.86c-.93-.37-1.75-.88-2.44-1.54a7.3 7.3 0 0 1-1.6-2.33c-.37-.89-.56-1.86-.56-2.91s.19-2.02.56-2.91c.39-.89.93-1.67 1.62-2.33a7.3 7.3 0 0 1 2.44-1.54 8.4 8.4 0 0 1 3.04-.55c1.11 0 2.12.19 3.04.55.93.36 1.74.88 2.42 1.54a7.2 7.2 0 0 1 1.62 2.33c.38.87.58 1.84.58 2.91 0 1.05-.2 2.03-.58 2.93a7.2 7.2 0 0 1-1.62 2.33c-.68.65-1.49 1.15-2.42 1.52-.92.36-1.93.54-3.02.54-1.11 0-2.13-.18-3.08-.54Zm4.78-2.57c.53-.22 1-.53 1.4-.93.4-.41.7-.89.92-1.44s.34-1.17.34-1.84c0-.68-.12-1.29-.34-1.84a4.2 4.2 0 0 0-.92-1.44 4.1 4.1 0 0 0-1.38-.93c-.54-.22-1.12-.32-1.74-.32-.63 0-1.21.1-1.74.32q-.78.33-1.38.93c-.4.41-.71.88-.94 1.44a5.1 5.1 0 0 0-.32 1.84c0 .66.11 1.27.32 1.84.23.55.53 1.03.92 1.44.4.4.87.71 1.4.93.53.21 1.11.32 1.74.32.62 0 1.2-.11 1.72-.32ZM178.94 6.5l-4.58 6.84 4.72 7.32h-3.68l-4.36-6.82 2.62-1.6 5.42 8.42M166.3 6.5h3.22v14.16h-3.22zm2.28 5.72h4.88v2.73h-4.88zm.94-5.72v5.72h2.33l3.67-5.72h3.42l-4.98 7.44-2.98-.36 4.54-7.08M60.7 6h-6.56v15.16h4.24v-3.91h2.32c1.3 0 2.46-.21 3.44-.65h.01c.98-.45 1.76-1.11 2.31-1.96.55-.86.82-1.87.82-3 0-1.15-.27-2.16-.82-3.02s-1.33-1.51-2.31-1.95C63.16 6.22 62 6 60.7 6Zm-2.32 7.59V9.67h2.14c.94 0 1.54.2 1.9.52.37.32.57.78.57 1.45 0 .65-.2 1.1-.57 1.42-.36.32-.96.53-1.9.53zm14.16 7.23c1.01.39 2.1.58 3.26.58s2.23-.19 3.21-.58q1.485-.585 2.58-1.62 1.11-1.065 1.74-2.49c.41-.97.62-2.02.62-3.13 0-1.13-.21-2.17-.63-3.11-.41-.95-.99-1.78-1.73-2.49a7.5 7.5 0 0 0-2.58-1.64c-.99-.39-2.06-.58-3.22-.58s-2.23.19-3.23.58a7.71 7.71 0 0 0-4.34 4.13c-.4.96-.6 2-.6 3.11s.2 2.15.6 3.1v.01q.63 1.425 1.71 2.49h.01c.74.71 1.61 1.25 2.6 1.64Zm4.77-3.49c-.45.19-.96.28-1.52.28-.57 0-1.09-.09-1.55-.28-.47-.19-.88-.47-1.23-.82-.34-.35-.61-.78-.81-1.27-.19-.5-.29-1.06-.29-1.66 0-.62.1-1.17.28-1.66.21-.49.48-.92.84-1.27.35-.36.75-.63 1.21-.82.47-.19.98-.28 1.55-.28.56 0 1.08.09 1.54.28.47.19.87.46 1.21.81v.01c.35.35.62.77.81 1.27l.01.01q.3.72.3 1.65t-.3 1.65l-.01.01c-.19.49-.46.91-.81 1.27-.35.35-.76.63-1.23.82Zm11.58.15-.01.01c-.09.19-.2.36-.32.5h6.26V9.17m-5.37 8.32c.21-.44.38-.95.51-1.51v-.01c.15-.67.26-1.4.33-2.2q.12-1.185.18-2.52l.04-1.58h3.81v7.82zm-5.32.5h.54c.37-.01.68-.13.94-.37a.8.8 0 0 0 .13-.13s.01 0 .01-.01m10.73 3.68v2.93h4.01v-6.6h-1.96V6H86.78l-.18 4.91a43 43 0 0 1-.19 2.78v.01c-.08.84-.21 1.56-.39 2.17-.17.59-.39 1-.65 1.28v.01a.94.94 0 0 1-.71.33h-1.03l-.03 6.6h4.01v-2.93zm14.78-5.81v5.81h4.24V6h-4.24v5.58h-5.35V6h-4.25v15.16h4.25v-5.81zm30.03.68c.34-.08.69-.18 1.04-.29.17-.06.33-.12.5-.18v5.1m-.5-4.4v4.9h4.2V6h-4.2v6.54c-.27.1-.55.2-.84.27-.53.13-1.08.19-1.66.19-.87 0-1.47-.22-1.87-.59-.39-.38-.62-.96-.62-1.85V6h-4.21v4.93c0 1.81.53 3.27 1.66 4.31h.01c1.12 1.02 2.7 1.49 4.65 1.49q.945 0 1.95-.21l.01-.01c.3-.07.61-.15.92-.25Zm10.62 4.56c1.01.39 2.1.58 3.26.58 1.15 0 2.22-.19 3.2-.58.99-.39 1.86-.93 2.59-1.62.74-.71 1.32-1.54 1.73-2.49.41-.97.62-2.02.62-3.13 0-1.13-.21-2.17-.62-3.11-.41-.95-.99-1.78-1.73-2.49-.73-.71-1.6-1.26-2.59-1.64-.98-.39-2.06-.58-3.22-.58-1.15 0-2.23.19-3.22.58a7.66 7.66 0 0 0-4.34 4.13c-.41.96-.6 2-.6 3.11s.19 2.15.6 3.1v.01q.615 1.425 1.71 2.49c.74.71 1.61 1.25 2.61 1.64Zm4.76-3.49c-.45.19-.95.28-1.52.28s-1.08-.09-1.55-.28a3.5 3.5 0 0 1-1.23-.82c-.34-.35-.61-.78-.81-1.27-.19-.5-.29-1.06-.29-1.66 0-.62.1-1.17.29-1.66.2-.49.48-.92.83-1.27.35-.36.76-.63 1.21-.82.47-.19.98-.28 1.55-.28s1.08.09 1.55.28q.705.285 1.2.81l.01.01c.35.35.62.77.81 1.27v.01q.3.72.3 1.65t-.3 1.65v.01c-.19.49-.46.91-.81 1.27-.35.35-.76.63-1.23.82zm13.76-1.88 3.65 5.71H180l-5.04-7.82L179.87 6h-4.63l-3.67 5.72h-1.55V6h-4.22v15.16h4.22v-5.71zM60.7 16.76h-2.82v3.9m2.64-6.58h-2.64V9.17h2.64m37.5-2.67v11.49h1.96M105.4 6.5v5.58h6.36V6.5m0 14.16v-5.81h-6.36v5.81m12.6.5h3.82l5.92-8.16v8.16h4.2V6h-3.8l-5.91 8.17V6H118zm57.4-.5-3.65-5.71h-2.23v5.71"/><path fill="#fff" fill-rule="evenodd" d="M56.62 56.92c-.48 0-.9-.08-1.27-.24a2.1 2.1 0 0 1-.87-.66q-.12-.16-.2-.34-.13-.3-.14-.65h1.24c.01.18.07.34.18.47s.26.23.44.31q.27.11.61.11c.25 0 .46-.04.65-.13.19-.08.33-.2.44-.34q.15-.225.15-.51v-.02c0-.2-.05-.37-.16-.52-.1-.15-.26-.27-.46-.36a2 2 0 0 0-.74-.13h-.6v-.92h.6c.24 0 .44-.04.62-.12q.27-.12.42-.33.05-.07.08-.14.07-.17.07-.36v-.03q0-.24-.1-.42-.02-.03-.03-.05a.9.9 0 0 0-.37-.33c-.15-.07-.34-.11-.55-.11s-.4.03-.57.11c-.18.07-.32.18-.43.31s-.17.29-.17.48h-1.18q.01-.37.14-.67.08-.16.18-.31.05-.06.11-.12.29-.34.74-.54.53-.23 1.19-.23.67 0 1.17.24.45.22.72.58.03.04.06.09.13.19.2.41.07.24.07.51v.01q0 .37-.15.66-.07.14-.18.26c-.23.26-.52.42-.89.5v.05c.48.06.84.24 1.1.52q.12.14.21.3.17.32.17.72v.01c0 .37-.11.71-.33 1-.21.29-.51.52-.88.68q-.57.25-1.29.25m22.59-3.4c0 .72-.14 1.33-.41 1.84-.27.5-.64.89-1.11 1.16s-1 .4-1.59.4-1.12-.13-1.59-.4q-.705-.405-1.11-1.17-.41-.76-.41-1.83c0-.71.14-1.32.41-1.82q.405-.765 1.11-1.17c.47-.27 1-.4 1.59-.4s1.12.13 1.59.4q.705.405 1.11 1.17.41.75.41 1.82m29.12 0c0 .72-.13 1.33-.41 1.84-.27.5-.64.89-1.11 1.16-.46.27-.99.4-1.59.4-.59 0-1.12-.13-1.59-.4s-.83-.66-1.11-1.17c-.27-.51-.4-1.12-.4-1.83s.13-1.32.4-1.82c.28-.51.64-.9 1.11-1.17s1-.4 1.59-.4c.6 0 1.13.13 1.59.4q.705.405 1.11 1.17c.28.5.41 1.11.41 1.82m-47.15 3.31h-1.3l2.38-6.61h1.51l2.39 6.61h-1.31l-.56-1.63h-2.55zm5.87 0v-6.61h2.59c.49 0 .89.07 1.22.22.32.15.57.35.73.61s.24.55.24.88c0 .27-.05.5-.16.69-.1.19-.24.35-.42.46-.18.12-.38.21-.6.26v.06a1.6 1.6 0 0 1 1.24.77q.21.36.21.86c0 .34-.09.65-.26.92s-.42.49-.76.65c-.34.15-.77.23-1.29.23zm12.88 1.6v-2.58h.45c.16-.12.3-.28.43-.5.13-.21.24-.51.34-.88.09-.38.15-.86.19-1.46l.18-2.79h4.32v5.63h.75v2.57h-1.17v-1.59h-4.31v1.6zm14.03-1.6-2.23-2.89h-.6v2.89H89.9v-6.61h1.23v2.72h.3l2.41-2.72h1.51l-2.67 3.01 2.79 3.6zm2.34 0v-6.61h2.54c.52 0 .95.09 1.3.28q.54.285.81.78c.18.33.27.71.27 1.13s-.09.8-.27 1.13q-.27.495-.81.78c-.36.18-.8.28-1.32.28h-1.3v2.23zm13.19 0v-6.61h2.59c.49 0 .9.07 1.22.22q.47.21.71.58.01.02.02.03c.17.26.25.55.25.88 0 .27-.06.5-.16.69-.11.19-.25.35-.43.46q-.02.02-.04.03-.25.16-.56.23v.06c.24.02.47.09.69.22.23.13.41.31.55.55s.21.52.21.86-.08.65-.25.92-.43.49-.77.65c-.34.15-.77.23-1.29.23zm6.12 0v-6.61h4.4v1h-3.18v1.8h2.95v1h-2.95v1.81h3.21v1zm5.21 0v-.99l.19-.01q.29-.02.49-.16.07-.05.13-.12c.15-.17.27-.44.34-.81q.12-.555.15-1.5l.11-3.02h4.44v6.61h-1.2V51.2h-2.1l-.1 2.41c-.03.73-.11 1.33-.25 1.8-.13.48-.34.83-.64 1.07-.29.23-.7.35-1.23.35zm8.42-4.06h1.31q.78 0 1.33.25c.37.16.66.4.86.69q.04.07.08.15.21.4.21.91c0 .41-.09.77-.29 1.08-.2.3-.49.55-.86.72q-.55.26-1.33.26h-2.53v-6.61h1.22zm4.99 4.06v-6.61h1.22v2.8h3.14v-2.8h1.23v6.61h-1.23v-2.81h-3.14v2.81zm8.16-4.06h1.31c.52 0 .96.08 1.33.25.37.16.66.4.86.69q.04.07.08.15.21.4.21.91c0 .41-.1.77-.29 1.08-.2.3-.49.55-.86.72s-.81.26-1.33.26h-2.54v-6.61h1.23zm5.61-2.55v6.61h-1.23v-6.61zm2.35 0 1.49 2.42h.05l1.5-2.42h1.4l-2.08 3.3 2.11 3.31h-1.42l-1.51-2.4h-.05l-1.5 2.4h-1.42l2.14-3.31-2.11-3.3zm-72.37 3.3c0-.5-.08-.92-.24-1.27q-.24-.51-.66-.78c-.29-.18-.61-.27-.98-.27q-.44 0-.8.17-.09.05-.17.1c-.29.18-.51.44-.67.78-.16.35-.24.77-.24 1.27 0 .51.08.93.24 1.28.16.34.38.6.67.78q.07.05.15.09.37.18.82.18c.37 0 .69-.09.98-.27q.42-.27.66-.78c.16-.35.24-.77.24-1.28m29.12 0q0-.75-.24-1.27-.24-.51-.66-.78a1.8 1.8 0 0 0-.98-.27c-.36 0-.69.09-.97.27q-.42.27-.66.78-.24.52-.24 1.27 0 .76.24 1.28.24.51.66.78c.28.18.61.27.97.27.37 0 .7-.09.98-.27q.42-.27.66-.78.24-.52.24-1.28m-38.83-.49h1.22c.21 0 .4-.04.57-.11.17-.08.3-.19.4-.33q.03-.04.05-.09.1-.18.1-.41c0-.26-.1-.47-.28-.64-.18-.16-.46-.25-.82-.25h-1.24zm42.45 0h1.21c.21 0 .4-.04.57-.11a.94.94 0 0 0 .4-.33c.1-.14.15-.31.15-.5q0-.21-.08-.38-.07-.14-.2-.26c-.18-.16-.45-.25-.81-.25h-1.24zm-13.2.58h1.13q.465 0 .75-.15c.19-.11.34-.25.43-.43.1-.18.14-.39.14-.62 0-.24-.04-.45-.14-.62q-.04-.08-.09-.14-.13-.17-.34-.28-.29-.15-.75-.15h-1.13zm-15.71 2.24h2.85v-4.63h-2.04l-.11 1.79c-.02.45-.07.86-.14 1.21-.06.36-.14.67-.24.94-.09.27-.2.5-.32.69m-17.85-1.61-.92-2.67h-.05l-.92 2.67zm65.28-.49v2.1h1.31q.405 0 .69-.15a1.048 1.048 0 0 0 .58-.94.94.94 0 0 0-.33-.72q-.33-.29-.94-.29zm13.15 0v2.1h1.31q.405 0 .69-.15a1.048 1.048 0 0 0 .58-.94.94.94 0 0 0-.33-.72q-.33-.29-.94-.29zm-74.12 2.08h1.32c.45 0 .77-.08.96-.25a.8.8 0 0 0 .3-.64q0-.2-.06-.37-.04-.09-.09-.16c-.1-.16-.24-.29-.42-.38s-.4-.14-.65-.14h-1.36zm42.45 0h1.32c.44 0 .76-.08.96-.25a.8.8 0 0 0 .3-.64c0-.2-.05-.38-.15-.53a1 1 0 0 0-.43-.38q-.27-.14-.65-.14h-1.35zm2.08 10.2c0 .71-.13 1.32-.41 1.83q-.405.765-1.11 1.17c-.46.26-.99.4-1.58.4-.6 0-1.13-.14-1.6-.4-.46-.28-.83-.66-1.11-1.17-.27-.51-.4-1.12-.4-1.83s.13-1.32.4-1.83c.28-.51.65-.89 1.11-1.16.47-.27 1-.41 1.6-.41.59 0 1.12.14 1.58.41.47.27.84.65 1.11 1.16.28.51.41 1.12.41 1.83m-58.55-3.31h1.5l2.01 4.8h.08l2.01-4.8h1.5v6.62h-1.17v-4.55h-.07l-1.87 4.53h-.88l-1.87-4.54h-.06v4.56h-1.18zm9.31 6.62h-1.31l2.38-6.62h1.51l2.39 6.62h-1.31l-.56-1.63h-2.54zm4.74-5.61v-1.01h5.4v1.01h-2.09v5.61H70.4v-5.61zm6.45 5.61v-6.62h4.4v1.01h-3.18v1.79h2.95v1.01h-2.95v1.8h3.2v1.01zm5.65 0v-6.62h2.53c.52 0 .96.1 1.31.29q.54.285.81.78.02.04.04.09.23.46.23 1.03c0 .43-.09.8-.27 1.13q-.285.495-.81.78c-.36.19-.8.28-1.32.28h-1.3v2.24zm5.98-6.62h1.22v4.51h.06l3.19-4.51h1.1v6.62h-1.23v-4.51h-.06l-3.19 4.51h-1.09zm7.77 6.62h-1.31l2.38-6.62h1.52l2.38 6.62h-1.3l-.57-1.63h-2.54zm5.43 0v-1l.19-.01c.26-.01.46-.1.62-.27.15-.17.26-.44.34-.81.07-.37.12-.87.14-1.5l.12-3.03h4.43v6.62h-1.2v-5.63h-2.09l-.11 2.41q-.045 1.08-.24 1.8c-.13.48-.34.83-.64 1.07-.3.23-.71.35-1.23.35zm14.38 0v-6.62h2.59c.49 0 .9.08 1.22.23.33.15.57.35.73.61.17.26.25.55.25.88 0 .27-.06.5-.16.69-.11.19-.25.34-.43.46s-.37.2-.6.26v.06c.25.01.48.09.7.22s.4.31.54.55c.14.23.21.52.21.86s-.08.65-.25.92-.43.49-.77.64q-.51.24-1.29.24zm-2.39-3.31c0-.5-.08-.92-.24-1.27q-.24-.525-.66-.78a1.77 1.77 0 0 0-.97-.27c-.37 0-.7.09-.98.27q-.42.255-.66.78c-.16.35-.24.77-.24 1.27s.08.93.24 1.27c.16.35.38.61.66.79.28.17.61.26.98.26.36 0 .69-.09.97-.26.28-.18.5-.44.66-.79.16-.34.24-.77.24-1.27m3.62-.49h1.21q.32 0 .57-.12c.17-.07.31-.18.4-.32q.15-.21.15-.51c0-.25-.09-.46-.28-.63q-.27-.25-.81-.25h-1.24zm-33.57.58h1.13c.31 0 .56-.05.75-.16.19-.1.34-.24.43-.42s.14-.39.14-.63c0-.23-.05-.44-.14-.62q-.04-.07-.09-.13-.13-.18-.34-.28c-.2-.1-.45-.16-.75-.16h-1.13zm-15.29.62-.92-2.66h-.05l-.91 2.66zm30.59 0-.91-2.66h-.05l-.92 2.66zm18.27 1.6h1.32c.44 0 .76-.09.96-.25.2-.17.3-.38.3-.65 0-.19-.05-.37-.15-.53a1 1 0 0 0-.43-.37q-.27-.14-.65-.14h-1.35z"/></svg>